<?xml version="1.0" encoding="utf-8"?>
<!-- Generator: Adobe Illustrator 27.5.0, SVG Export Plug-In . SVG Version: 6.00 Build 0)  -->
<svg version="1.1" id="Layer_1" xmlns="http://www.w3.org/2000/svg" xmlns:xlink="http://www.w3.org/1999/xlink" x="0px" y="0px"
	 viewBox="0 0 75 25" style="enable-background:new 0 0 75 25;" xml:space="preserve">
<style type="text/css">
	.st0{fill:#373833;}
	.st1{fill:#C04327;}
</style>
<g>
	<path class="st0" d="M4.08,8.7C4.6,8.02,6.04,7.98,6.45,8.18v4.83c0,1.66-1.01,2.65-2.72,2.65v-0.47c0.51-0.14,0.92-0.64,0.92-1.51
		V10.2C4.64,9.24,4.35,8.87,4.08,8.7z M5.72,5.64c0.51,0.06,0.86,0.55,0.76,1.1C6.37,7.28,5.89,7.65,5.37,7.59
		C4.85,7.52,4.5,7.05,4.61,6.5C4.72,5.94,5.2,5.58,5.72,5.64z"/>
	<path class="st0" d="M10.75,12.57c-0.01,0.02-0.01,0.03-0.02,0.04c-0.23,0.5-0.98,0.88-1.77,0.87c-1.23-0.01-1.84-0.68-1.85-1.5
		c-0.01-0.74,0.59-1.27,1.48-1.55c0.6-0.19,1.37-0.23,2.13-0.23V9.68c0-0.65-0.42-0.95-0.81-0.95c-0.32,0-0.61,0.22-0.61,0.61
		c0.01,0.72-1.63,0.77-1.64,0.03c0-0.76,1.02-1.34,2.35-1.34c1.72,0,2.51,1.08,2.51,2.45v1.51c0,0.78,0.45,0.76,0.77,0.39l0.36,0.37
		c-0.51,0.58-0.96,0.74-1.57,0.74C11.44,13.48,10.87,13.18,10.75,12.57z M9.7,12.51c0.44,0,0.99-0.35,1.03-1.59v-0.2
		c-0.68,0-1.84,0.05-1.84,1.04C8.89,12.15,9.12,12.51,9.7,12.51z"/>
	<path class="st0" d="M14.38,11.7V9.93c0-0.95-0.36-1.06-0.63-1.23c0.52-0.68,1.96-0.72,2.37-0.52v0.83
		c0.24-0.52,1.02-0.99,1.65-0.99c0.7,0,1.59,0.45,1.59,1.92v1.76c0,0.97,0.31,1.17,0.59,1.22l0.03,0.41h-2.94v-0.41
		c0.28-0.04,0.59-0.24,0.59-1.22V9.93c0-0.95-0.31-1.14-0.5-1.14c-0.56,0-1,0.99-1,1.97v0.93c0,0.97,0.31,1.17,0.59,1.22v0.41h-2.94
		l0.03-0.41C14.08,12.87,14.38,12.67,14.38,11.7z"/>
	<path class="st0" d="M23.88,12.57c-0.01,0.02-0.01,0.03-0.02,0.04c-0.23,0.5-0.98,0.88-1.77,0.87c-1.23-0.01-1.84-0.68-1.85-1.5
		c-0.01-0.74,0.59-1.27,1.48-1.55c0.6-0.19,1.37-0.23,2.13-0.23V9.68c0-0.65-0.42-0.95-0.81-0.95c-0.32,0-0.61,0.22-0.61,0.61
		c0.01,0.72-1.63,0.77-1.64,0.03c0-0.76,1.02-1.34,2.35-1.34c1.72,0,2.51,1.08,2.51,2.45v1.51c0,0.78,0.45,0.76,0.77,0.39l0.36,0.37
		c-0.51,0.58-0.96,0.74-1.57,0.74C24.57,13.48,24,13.18,23.88,12.57z M22.83,12.51c0.44,0,0.99-0.35,1.03-1.59v-0.2
		c-0.68,0-1.84,0.05-1.84,1.04C22.02,12.15,22.25,12.51,22.83,12.51z"/>
	<path class="st0" d="M26.61,10.77c0-1.53,1.26-2.77,2.82-2.77s2.56,0.78,2.42,1.77c-0.08,0.59-0.5,0.97-1.25,1.21
		c-0.52,0.16-1.22,0.24-2.05,0.09c0.03,0.85,0.77,1.48,1.54,1.53c0.48,0.04,1.09-0.17,1.46-0.59l0.36,0.37
		c-0.57,0.73-1.5,1.14-2.48,1.14C27.87,13.53,26.61,12.3,26.61,10.77z M30.6,9.64c0.16-0.56-0.29-0.96-0.75-0.92
		c-0.79,0.07-1.14,0.86-1.25,1.73C29.91,10.7,30.45,10.16,30.6,9.64z"/>
	<path class="st0" d="M34.9,13.36V8.3c0-0.95-0.36-1.06-0.63-1.23c0.52-0.68,1.96-0.72,2.37-0.52v2.18
		c0.21-0.45,0.79-0.71,1.23-0.71c1.12,0,2.1,0.65,2.1,2.45c0,1.06-0.66,2.98-2.57,3.01C36.21,13.5,35.89,13.08,34.9,13.36z
		 M37.12,12.87c0.81,0,1.04-1.37,1.04-2.19c0-0.88-0.23-1.88-0.77-1.88c-0.5,0-0.76,0.72-0.76,1.7v1.32
		C36.64,12.63,36.78,12.87,37.12,12.87z"/>
	<path class="st0" d="M40.8,11.79V10.2c0-0.95-0.3-1.33-0.57-1.5c0.52-0.68,1.89-0.72,2.3-0.52v1.21c0.51-1.5,1.87-3.7,3.26-3.7
		c0.59,0,0.93,0.45,0.93,0.91c0,0.5-0.39,1-1.24,0.98c-1.68-0.03-2.83,1.82-2.95,3.16v0.95c0,0.97,0.31,1.17,0.59,1.22l0.03,0.41
		h-2.95l0.03-0.41C40.5,12.87,40.8,12.64,40.8,11.79z M46.63,8c1.56,0,2.56,0.78,2.42,1.77c-0.08,0.59-0.5,0.97-1.25,1.21
		c-0.52,0.16-1.22,0.24-2.05,0.09c0.03,0.85,0.77,1.48,1.54,1.53c0.48,0.04,1.09-0.17,1.46-0.59l0.36,0.37
		c-0.57,0.73-1.5,1.14-2.48,1.14c-1.56,0-2.82-1.23-2.82-2.77C43.81,9.24,45.07,8,46.63,8z M47.8,9.64
		c0.16-0.56-0.29-0.96-0.75-0.92c-0.79,0.07-1.14,0.86-1.25,1.73C47.11,10.7,47.65,10.16,47.8,9.64z"/>
	<path class="st0" d="M49.83,11.56V9.93c0-0.95-0.36-1.06-0.63-1.23c0.52-0.68,1.96-0.72,2.37-0.52v3.39c0,0.95,0.31,1.14,0.5,1.14
		c0.56,0,1-0.99,1-1.97v-0.8c0-0.95-0.36-1.06-0.63-1.23c0.52-0.68,1.96-0.72,2.37-0.52v3.51c0,0.97,0.31,1.17,0.59,1.22h0.01
		l0.02,0.41h-2.35v-0.83c-0.24,0.52-1.02,0.99-1.65,0.99C50.72,13.48,49.83,13.03,49.83,11.56z"/>
	<path class="st0" d="M56.24,11.7V9.93c0-0.95-0.36-1.06-0.63-1.23c0.52-0.68,1.96-0.72,2.37-0.52v0.83
		c0.24-0.52,1.02-0.99,1.65-0.99c0.7,0,1.59,0.45,1.59,1.92v1.76c0,0.97,0.31,1.17,0.59,1.22l0.03,0.41H58.9v-0.41
		c0.28-0.04,0.59-0.24,0.59-1.22V9.93c0-0.95-0.31-1.14-0.5-1.14c-0.56,0-1,0.99-1,1.97v0.93c0,0.97,0.31,1.17,0.59,1.22v0.41h-2.94
		l0.03-0.41C55.93,12.87,56.24,12.67,56.24,11.7z"/>
	<path class="st0" d="M62.63,11.79V10.2c0-0.95-0.3-1.33-0.57-1.5c0.52-0.68,1.9-0.72,2.31-0.52v3.51c0,0.97,0.31,1.17,0.59,1.22
		l0.03,0.41h-2.96l0.03-0.41C62.32,12.87,62.63,12.64,62.63,11.79z M63.7,5.64c0.51,0.06,0.87,0.55,0.76,1.1
		c-0.11,0.54-0.59,0.91-1.11,0.85c-0.51-0.06-0.86-0.54-0.76-1.09C62.7,5.94,63.18,5.58,63.7,5.64z"/>
	<path class="st0" d="M64.9,13.99c0-0.5,0.31-0.86,0.75-0.94c0.37-0.07,0.78,0.27,0.76,0.59c-0.03,0.37-0.23,0.41-0.23,0.67
		c0,0.31,0.63,0.57,1.31,0.57c0.89,0,1.39-0.37,1.39-0.77c0-0.56-0.62-0.63-1.43-0.78c-1.19-0.19-1.72-0.49-1.72-1.02
		c0-0.38,0.3-0.68,0.72-0.83c-0.75-0.31-1.17-0.88-1.17-1.59c0-1,0.94-1.81,2.45-1.81c0.32,0,0.63,0.04,0.9,0.11
		c-0.17-0.15-0.13-0.59,0.09-0.86c0.25-0.29,0.56-0.39,0.85-0.39c0.53,0,0.95,0.32,0.95,0.75c0,0.36-0.27,0.65-0.62,0.65
		c-0.32,0-0.68-0.21-0.59-0.54c-0.08-0.09-0.3-0.06-0.4,0.12c-0.09,0.16-0.04,0.27-0.03,0.35c0.82,0.29,1.3,0.91,1.3,1.62
		c0,1-0.94,1.81-2.45,1.81c-0.27,0-0.52-0.03-0.76-0.07c-0.21-0.02-0.37,0.09-0.37,0.26c0,0.23,0.5,0.23,1.05,0.25
		c1.57,0.05,2.82,0.36,2.82,1.45c0,1.04-1.19,1.74-2.97,1.74C65.91,15.33,64.9,14.8,64.9,13.99z M67.71,11.28
		c0.41,0,0.75-0.62,0.75-1.39s-0.34-1.4-0.75-1.4c-0.4,0-0.73,0.63-0.73,1.4S67.31,11.28,67.71,11.28z"/>
</g>
<g>
	<path class="st1" d="M14.78,18.28c-0.15,0-0.28-0.02-0.41-0.07c-0.13-0.05-0.24-0.12-0.33-0.21c-0.09-0.09-0.16-0.19-0.22-0.31
		c-0.05-0.12-0.08-0.25-0.08-0.4c0-0.14,0.03-0.27,0.08-0.39c0.05-0.12,0.12-0.22,0.22-0.31c0.09-0.09,0.2-0.16,0.33-0.21
		c0.13-0.05,0.26-0.07,0.41-0.07c0.17,0,0.31,0.03,0.45,0.09c0.13,0.06,0.25,0.14,0.34,0.25l-0.29,0.26
		c-0.06-0.07-0.14-0.13-0.22-0.17s-0.17-0.06-0.26-0.06c-0.09,0-0.17,0.01-0.25,0.04c-0.07,0.03-0.14,0.07-0.19,0.13
		c-0.05,0.05-0.1,0.12-0.13,0.19c-0.03,0.07-0.04,0.16-0.04,0.25c0,0.09,0.01,0.17,0.04,0.25c0.03,0.07,0.07,0.14,0.13,0.19
		c0.05,0.05,0.12,0.1,0.19,0.13c0.07,0.03,0.16,0.04,0.25,0.04c0.09,0,0.18-0.02,0.26-0.06c0.08-0.04,0.15-0.1,0.22-0.17l0.29,0.26
		c-0.09,0.11-0.2,0.2-0.34,0.25C15.1,18.25,14.95,18.28,14.78,18.28z"/>
	<path class="st1" d="M16.95,18.25v-1.91h0.83c0.17,0,0.32,0.03,0.44,0.08c0.12,0.06,0.22,0.13,0.29,0.24
		c0.07,0.1,0.1,0.23,0.1,0.37c0,0.14-0.03,0.27-0.1,0.37c-0.07,0.1-0.16,0.18-0.29,0.23c-0.12,0.05-0.27,0.08-0.44,0.08H17.2
		l0.2-0.19v0.72H16.95z M17.4,17.57l-0.2-0.21h0.56c0.13,0,0.24-0.03,0.31-0.09c0.07-0.06,0.1-0.14,0.1-0.25
		c0-0.1-0.03-0.19-0.1-0.24c-0.07-0.06-0.17-0.09-0.31-0.09H17.2l0.2-0.21V17.57z M18.17,18.25l-0.48-0.69h0.47l0.48,0.69H18.17z"/>
	<path class="st1" d="M20.48,17.9h1.04v0.35h-1.48v-1.91h1.44v0.35h-1V17.9z M20.45,17.11h0.92v0.35h-0.92V17.11z"/>
	<path class="st1" d="M22.71,18.25l0.85-1.91H24l0.86,1.91h-0.46l-0.7-1.68h0.18l-0.7,1.68H22.71z M23.14,17.84l0.11-0.34h0.99
		l0.11,0.34H23.14z"/>
	<path class="st1" d="M26.44,18.25V16.7h-0.61v-0.36h1.66v0.36h-0.61v1.55H26.44z"/>
	<path class="st1" d="M28.82,18.25v-1.91h0.44v1.91H28.82z"/>
	<path class="st1" d="M31.36,18.25l-0.83-1.91h0.48l0.72,1.69h-0.28l0.73-1.69h0.44l-0.83,1.91H31.36z"/>
	<path class="st1" d="M34.31,17.9h1.04v0.35h-1.48v-1.91h1.44v0.35h-1V17.9z M34.28,17.11h0.92v0.35h-0.92V17.11z"/>
	<path class="st1" d="M38.65,18.25v-1.91h0.87c0.21,0,0.39,0.04,0.55,0.12c0.16,0.08,0.28,0.19,0.37,0.33
		c0.09,0.14,0.13,0.31,0.13,0.5c0,0.19-0.04,0.36-0.13,0.5c-0.09,0.14-0.21,0.25-0.37,0.33c-0.16,0.08-0.34,0.12-0.55,0.12H38.65z
		 M39.09,17.89h0.4c0.13,0,0.24-0.02,0.33-0.07c0.09-0.05,0.17-0.12,0.22-0.21c0.05-0.09,0.08-0.19,0.08-0.31
		c0-0.12-0.03-0.23-0.08-0.32c-0.05-0.09-0.12-0.16-0.22-0.21c-0.09-0.05-0.2-0.07-0.33-0.07h-0.4V17.89z"/>
	<path class="st1" d="M42.43,17.9h1.04v0.35h-1.48v-1.91h1.44v0.35h-1V17.9z M42.39,17.11h0.92v0.35h-0.92V17.11z"/>
	<path class="st1" d="M45.53,18.28c-0.15,0-0.3-0.02-0.44-0.06c-0.14-0.04-0.25-0.09-0.34-0.16l0.15-0.33
		c0.08,0.06,0.18,0.11,0.29,0.14c0.11,0.04,0.23,0.06,0.34,0.06c0.09,0,0.16-0.01,0.21-0.03c0.05-0.02,0.09-0.04,0.12-0.07
		c0.03-0.03,0.04-0.06,0.04-0.1c0-0.05-0.02-0.09-0.06-0.12c-0.04-0.03-0.09-0.05-0.16-0.07c-0.07-0.02-0.14-0.04-0.22-0.05
		c-0.08-0.02-0.16-0.04-0.24-0.06c-0.08-0.02-0.15-0.06-0.22-0.1c-0.07-0.04-0.12-0.09-0.16-0.16C44.82,17.09,44.8,17,44.8,16.9
		c0-0.11,0.03-0.21,0.09-0.3s0.15-0.16,0.27-0.21c0.12-0.05,0.27-0.08,0.45-0.08c0.12,0,0.24,0.01,0.36,0.04
		c0.12,0.03,0.22,0.07,0.31,0.13l-0.14,0.33c-0.09-0.05-0.17-0.09-0.26-0.11c-0.09-0.02-0.18-0.04-0.26-0.04
		c-0.09,0-0.16,0.01-0.21,0.03c-0.05,0.02-0.09,0.04-0.12,0.08c-0.02,0.03-0.04,0.07-0.04,0.11c0,0.05,0.02,0.09,0.06,0.12
		c0.04,0.03,0.09,0.06,0.16,0.07c0.07,0.02,0.14,0.03,0.22,0.05c0.08,0.02,0.16,0.04,0.24,0.06c0.08,0.03,0.15,0.06,0.22,0.1
		c0.07,0.04,0.12,0.09,0.16,0.16c0.04,0.07,0.06,0.15,0.06,0.25c0,0.11-0.03,0.21-0.09,0.29c-0.06,0.09-0.15,0.16-0.27,0.21
		C45.86,18.25,45.71,18.28,45.53,18.28z"/>
	<path class="st1" d="M47.73,18.25v-1.91h0.44v1.91H47.73z"/>
	<path class="st1" d="M50.64,18.28c-0.15,0-0.29-0.02-0.42-0.07c-0.13-0.05-0.24-0.12-0.33-0.21c-0.09-0.09-0.16-0.19-0.22-0.31
		c-0.05-0.12-0.08-0.25-0.08-0.4c0-0.14,0.03-0.27,0.08-0.39c0.05-0.12,0.12-0.22,0.22-0.31c0.09-0.09,0.21-0.16,0.33-0.21
		c0.13-0.05,0.27-0.07,0.42-0.07c0.17,0,0.32,0.03,0.46,0.08c0.14,0.06,0.25,0.14,0.34,0.25l-0.28,0.26
		c-0.07-0.07-0.15-0.13-0.23-0.16c-0.08-0.04-0.17-0.05-0.27-0.05c-0.09,0-0.17,0.01-0.25,0.04c-0.08,0.03-0.14,0.07-0.2,0.13
		c-0.06,0.05-0.1,0.12-0.13,0.19s-0.04,0.16-0.04,0.25c0,0.09,0.01,0.17,0.04,0.24s0.07,0.14,0.13,0.19c0.06,0.05,0.12,0.1,0.2,0.13
		c0.07,0.03,0.16,0.05,0.25,0.05c0.09,0,0.17-0.01,0.25-0.04c0.08-0.03,0.16-0.08,0.24-0.14l0.25,0.32
		c-0.11,0.08-0.23,0.14-0.36,0.18C50.91,18.26,50.77,18.28,50.64,18.28z M51,17.98v-0.72h0.4v0.77L51,17.98z"/>
	<path class="st1" d="M52.9,18.25v-1.91h0.36l1.13,1.37h-0.18v-1.37h0.44v1.91h-0.36l-1.13-1.37h0.18v1.37H52.9z"/>
	<path class="st1" d="M56.63,17.9h1.04v0.35H56.2v-1.91h1.44v0.35h-1V17.9z M56.6,17.11h0.92v0.35H56.6V17.11z"/>
	<path class="st1" d="M59.11,18.25v-1.91h0.83c0.17,0,0.32,0.03,0.44,0.08c0.12,0.06,0.22,0.13,0.29,0.24
		c0.07,0.1,0.1,0.23,0.1,0.37c0,0.14-0.03,0.27-0.1,0.37c-0.07,0.1-0.16,0.18-0.29,0.23c-0.12,0.05-0.27,0.08-0.44,0.08h-0.58
		l0.2-0.19v0.72H59.11z M59.56,17.57l-0.2-0.21h0.56c0.13,0,0.24-0.03,0.3-0.09c0.07-0.06,0.1-0.14,0.1-0.25
		c0-0.1-0.03-0.19-0.1-0.24c-0.07-0.06-0.17-0.09-0.3-0.09h-0.56l0.2-0.21V17.57z M60.33,18.25l-0.48-0.69h0.47l0.48,0.69H60.33z"/>
</g>
<g>
	<path class="st0" d="M85.47,69.41c0-1.97,1.22-3.4,2.97-3.73c1.47-0.29,3.12,1.08,3.01,2.33c-0.11,1.47-0.93,1.61-0.93,2.65
		c0,1.22,2.51,2.26,5.2,2.26c3.55,0,5.52-1.47,5.52-3.05c0-2.22-2.47-2.51-5.7-3.12c-4.73-0.75-6.84-1.93-6.84-4.05
		c0-1.5,1.18-2.72,2.87-3.3c-2.97-1.22-4.66-3.51-4.66-6.31c0-3.98,3.73-7.2,9.75-7.2c1.29,0,2.51,0.14,3.58,0.43
		c-0.68-0.61-0.54-2.33,0.36-3.4c1-1.15,2.22-1.54,3.37-1.54c2.11,0,3.8,1.29,3.8,2.97c0,1.43-1.08,2.58-2.47,2.58
		c-1.25,0-2.72-0.82-2.36-2.15c-0.32-0.36-1.18-0.25-1.58,0.47c-0.36,0.64-0.18,1.08-0.11,1.4c3.26,1.15,5.16,3.62,5.16,6.45
		c0,3.98-3.73,7.2-9.75,7.2c-1.08,0-2.08-0.11-3.01-0.29c-0.82-0.07-1.47,0.36-1.47,1.04c0,0.93,2.01,0.9,4.16,1
		c6.23,0.21,11.21,1.43,11.21,5.77c0,4.12-4.73,6.92-11.82,6.92C89.49,74.75,85.47,72.64,85.47,69.41z M96.65,58.63
		c1.61,0,2.97-2.47,2.97-5.52c0-3.05-1.36-5.55-2.97-5.55c-1.58,0-2.9,2.51-2.9,5.55C93.75,56.16,95.08,58.63,96.65,58.63z"/>
	<path class="st0" d="M108.51,56.59c0-6.09,5.02-11,11.21-11s10.18,3.12,9.64,7.06c-0.32,2.33-2.01,3.87-4.98,4.8
		c-2.08,0.64-4.84,0.97-8.17,0.36c0.11,3.37,3.04,5.88,6.13,6.09c1.9,0.14,4.33-0.68,5.8-2.33l1.43,1.47
		c-2.26,2.9-5.98,4.55-9.85,4.55C113.53,67.59,108.51,62.68,108.51,56.59z M124.38,52.11c0.64-2.22-1.15-3.83-2.97-3.65
		c-3.15,0.29-4.51,3.44-4.98,6.88C121.63,56.3,123.77,54.19,124.38,52.11z"/>
	<path class="st0" d="M129.94,48.81v-1.79c4.94-1.61,7.02-4.3,8.85-6.7h0.82v5.98h3.8v2.51h-3.8v12.61c0,3.12,1.79,3.01,3.08,1.54
		l1.43,1.47c-2.04,2.29-3.83,2.94-6.23,2.94c-2.97,0-5.45-1.5-5.45-4.62V48.81H129.94z"/>
	<path class="st0" d="M155.88,60.64v-6.31c0-3.8-1.18-5.3-2.26-5.95c2.08-2.72,7.56-2.87,9.17-2.08v13.97
		c0,3.87,1.22,4.66,2.33,4.84l0.11,1.61h-11.79l0.11-1.61C154.66,64.94,155.88,64.04,155.88,60.64z M160.14,36.2
		c2.04,0.25,3.44,2.19,3.01,4.37c-0.43,2.15-2.33,3.62-4.41,3.37c-2.04-0.25-3.44-2.15-3.01-4.34
		C156.16,37.38,158.1,35.95,160.14,36.2z"/>
	<path class="st0" d="M168.45,60.28v-7.02c0-3.8-1.43-4.23-2.51-4.87c2.08-2.72,7.81-2.87,9.42-2.08v3.3
		c0.97-2.08,4.05-3.94,6.56-3.94c2.79,0,6.34,1.79,6.34,7.63v6.99c0,3.87,1.22,4.66,2.33,4.84l0.11,1.61h-11.68v-1.61
		c1.11-0.18,2.33-0.97,2.33-4.84v-7.02c0-3.8-1.22-4.51-2.01-4.51c-2.22,0-3.98,3.94-3.98,7.85v3.69c0,3.87,1.22,4.66,2.33,4.84
		v1.61h-11.68l0.11-1.61C167.23,64.94,168.45,64.15,168.45,60.28z"/>
	<path class="st0" d="M200.02,48.81v-1.79c4.94-1.61,7.02-4.3,8.85-6.7h0.82v5.98h3.8v2.51h-3.8v12.61c0,3.12,1.79,3.01,3.08,1.54
		l1.43,1.47c-2.04,2.29-3.83,2.94-6.23,2.94c-2.97,0-5.45-1.5-5.45-4.62V48.81H200.02z"/>
	<path class="st0" d="M214.2,56.48c0-5.84,4.05-10.57,10.68-10.57c6.59,0,10.64,4.73,10.64,10.57s-4.05,10.61-10.64,10.61
		C218.25,67.08,214.2,62.32,214.2,56.48z M224.88,64.61c1.86,0,3.47-3.65,3.47-8.13c0-4.44-1.61-8.13-3.47-8.13
		c-1.86,0-3.44,3.69-3.44,8.13C221.44,60.96,223.02,64.61,224.88,64.61z"/>
	<path class="st0" d="M238.03,59.74v-6.48c0-3.8-1.43-4.23-2.51-4.87c2.08-2.72,7.81-2.87,9.42-2.08v13.47
		c0,3.8,1.22,4.51,2.01,4.51c2.22,0,3.98-3.94,3.98-7.85v-3.19c0-3.8-1.43-4.23-2.51-4.87c2.08-2.72,7.81-2.87,9.42-2.08v13.97
		c0,3.87,1.22,4.66,2.33,4.84h0.04l0.07,1.61h-9.35v-3.3c-0.97,2.08-4.05,3.94-6.56,3.94C241.57,67.37,238.03,65.58,238.03,59.74z"
		/>
	<path class="st0" d="M260.99,56.66c0-6.09,5.02-11,11.21-11c4.16,0,7.6,1.86,8.78,4.98c1.86,4.94-6.77,5.62-5.52,0.32
		c0.32-1.36,0.04-2.58-1.58-2.44c-3.22,0.29-5.34,4.23-5.34,8.1c0,4.16,2.51,7.02,6.27,7.27c1.9,0.14,4.34-0.68,5.8-2.33l1.43,1.47
		c-2.26,2.9-5.98,4.55-9.85,4.55C266.01,67.59,260.99,62.75,260.99,56.66z"/>
	<path class="st0" d="M284.92,60.28V46.09c0-3.8-1.43-4.23-2.51-4.87c2.08-2.72,7.81-2.87,9.42-2.08v9.35
		c0.86-1.79,3.3-2.83,5.52-2.83c3.12,0,6.66,1.79,6.66,7.63v6.99c0,3.87,1.22,4.66,2.33,4.84l0.11,1.61h-11.68v-1.61
		c1.11-0.18,2.33-0.97,2.33-4.84v-7.02c0-3.8-1.54-4.51-2.26-4.51c-1.97,0-3.01,2.87-3.01,6.77v4.76c0,3.87,1.22,4.66,2.33,4.84
		v1.61h-11.68l0.11-1.61C283.71,64.94,284.92,64.15,284.92,60.28z"/>
</g>
<g>
	<path class="st0" d="M109.02,4.12V-2.9c0-3.8-1.43-4.23-2.51-4.87c2.08-2.72,7.34-2.87,8.96-2.08v3.3
		c0.97-2.08,4.05-3.94,6.56-3.94c2.29,0,4.77,1.22,5.59,4.87c0.36-2.4,3.98-4.84,6.84-4.84c2.79,0,5.88,1.79,5.88,7.63v6.99
		c0,3.87,1.22,4.62,2.33,4.8l0.11,1.61h-11.21V8.95c1.11-0.18,2.33-0.93,2.33-4.8v-7.02c0-3.8-1.22-4.51-2.01-4.51
		c-2.22,0-3.98,3.94-3.98,7.85v3.65c0,3.87,1.22,4.66,2.33,4.84v1.61h-11.11V8.95c1.11-0.18,2.33-0.97,2.33-4.84V-2.9
		c0-3.8-1.22-4.51-2.01-4.51c-2.22,0-3.98,3.94-3.98,7.85v3.69c0,3.87,1.22,4.66,2.33,4.84v1.61h-11.21l0.11-1.61
		C107.8,8.78,109.02,7.99,109.02,4.12z"/>
	<path class="st0" d="M146.64-3.84c-1.36-2.69-2.26-3.3-4.05-3.48l0.25-2.54h12.75v2.54c-2.11,0.04-2.87,0.54-2.22,2.62l3.65,9.35
		l3.33-9.21c0.72-2.15-0.21-2.72-2.19-2.72l-0.04-2.58h8.63l-0.25,2.58c-1.83,0.18-3.05,0.82-4.05,3.65l-5.12,14.19
		c-1.9,5.73-4.51,9.32-9.82,9.32c-2.51,0-3.69-1.5-3.69-3.12c0-1.76,1.4-3.44,4.05-2.4c4.19,1.65,6.02-0.36,4.84-3.44L146.64-3.84z"
		/>
	<path class="st0" d="M189.85-0.58l-4.01,11.14h-5.12L175.05-3.8c-1.36-2.72-2.18-3.33-3.98-3.51l0.25-2.54h12.5l-0.04,2.54
		c-0.97,0.11-2.47,0.79-1.97,2.54l3.69,9.42l3.08-8.46c-1.36-2.72-1.93-3.33-3.73-3.51v-2.54h13.29v2.54
		c-2.11,0.04-3.4,0.54-2.76,2.62l3.44,8.74l3.08-8.56c0.72-2.19-0.75-2.76-2.72-2.76l-0.04-2.58h9.17l-0.25,2.58
		c-1.83,0.18-3.04,0.82-4.05,3.65l-5.12,14.19h-4.66L189.85-0.58z"/>
	<path class="st0" d="M207.44,0.32c0-5.84,4.05-10.57,10.68-10.57c6.59,0,10.64,4.73,10.64,10.57c0,5.84-4.05,10.61-10.64,10.61
		C211.49,10.93,207.44,6.16,207.44,0.32z M218.12,8.45c1.86,0,3.48-3.65,3.48-8.13c0-4.44-1.61-8.13-3.48-8.13s-3.44,3.69-3.44,8.13
		C214.68,4.8,216.25,8.45,218.12,8.45z"/>
	<path class="st0" d="M231.55,4.48v-6.31c0-3.8-1.18-5.3-2.26-5.95c2.08-2.72,7.52-2.87,9.14-2.08v6.45
		c1.72-3.73,4.76-7.06,7.49-7.06c7.06,0,3.87,12.47-1.97,7.52c-3.44-2.9-5.52,1.93-5.52,7.06c0,3.87,1.22,4.66,2.33,4.84l0.11,1.61
		h-11.75l0.11-1.61C230.33,8.78,231.55,7.88,231.55,4.48z"/>
	<path class="st0" d="M262.04,5.23l-2.29-3.44v2.33c0,3.87,1.22,4.66,2.33,4.84l0.11,1.61H250.4l0.11-1.61
		c1.11-0.18,2.33-0.97,2.33-4.84v-14.19c0-3.8-1.43-4.23-2.51-4.87c2.08-2.72,7.81-2.87,9.42-2.08v15.51l4.01-3.83
		c1.4-1.5,1.15-3.01-0.64-3.37l-0.04-1.15h8.63l-0.36,2.54c-1.58,0.14-3.26,1.08-5.2,2.79l-2.15,2.08l4.8,7.06
		c2.4,3.51,3.8,4.16,4.66,4.33h0.43l0.14,1.61h-2.76C267.27,10.57,264.87,9.49,262.04,5.23z"/>
</g>
</svg>
