<?xml version="1.0" encoding="utf-8"?>
<!-- Generator: Adobe Illustrator 27.5.0, SVG Export Plug-In . SVG Version: 6.00 Build 0)  -->
<svg version="1.1" id="Layer_1" xmlns="http://www.w3.org/2000/svg" xmlns:xlink="http://www.w3.org/1999/xlink" x="0px" y="0px"
	 viewBox="0 0 150 50" style="enable-background:new 0 0 150 50;" xml:space="preserve">
<style type="text/css">
	.st0{fill:#373833;}
	.st1{fill:#DD5835;}
</style>
<g>
	<path class="st0" d="M5.73,17.67c1.09-1.43,4.09-1.5,4.94-1.09v10.07c0,3.46-2.1,5.52-5.67,5.52V31.2c1.07-0.3,1.92-1.33,1.92-3.16
		v-7.25C6.92,18.8,6.29,18.01,5.73,17.67z M9.15,11.29c1.07,0.13,1.8,1.15,1.58,2.29c-0.23,1.13-1.22,1.9-2.31,1.77
		c-1.07-0.13-1.8-1.13-1.58-2.27C7.07,11.91,8.08,11.16,9.15,11.29z"/>
	<path class="st0" d="M19.65,25.73c-0.02,0.04-0.02,0.06-0.04,0.08c-0.49,1.05-2.05,1.84-3.68,1.82c-2.55-0.02-3.83-1.43-3.85-3.12
		c-0.02-1.54,1.22-2.65,3.08-3.23c1.26-0.39,2.86-0.47,4.43-0.47V19.7c0-1.35-0.88-1.99-1.69-1.99c-0.68,0-1.28,0.45-1.28,1.28
		c0.02,1.5-3.4,1.62-3.42,0.06c0-1.58,2.12-2.8,4.9-2.8c3.59,0,5.24,2.25,5.24,5.11v3.16c0,1.63,0.94,1.58,1.62,0.81l0.75,0.77
		c-1.07,1.2-2.01,1.54-3.27,1.54C21.08,27.63,19.9,27.01,19.65,25.73z M17.45,25.6c0.92,0,2.07-0.73,2.14-3.32v-0.41
		c-1.41,0-3.83,0.11-3.83,2.18C15.76,24.87,16.25,25.6,17.45,25.6z"/>
	<path class="st0" d="M27.22,23.91v-3.68c0-1.99-0.75-2.22-1.31-2.55c1.09-1.43,4.09-1.5,4.94-1.09v1.73
		c0.51-1.09,2.12-2.07,3.44-2.07c1.46,0,3.32,0.94,3.32,4v3.66c0,2.03,0.64,2.44,1.22,2.54l0.06,0.85h-6.12v-0.85
		c0.58-0.09,1.22-0.51,1.22-2.54v-3.68c0-1.99-0.64-2.37-1.05-2.37c-1.16,0-2.08,2.07-2.08,4.11v1.94c0,2.03,0.64,2.44,1.22,2.54
		v0.85h-6.12L26,26.45C26.58,26.35,27.22,25.94,27.22,23.91z"/>
	<path class="st0" d="M47.02,25.73c-0.02,0.04-0.02,0.06-0.04,0.08c-0.49,1.05-2.05,1.84-3.68,1.82c-2.55-0.02-3.83-1.43-3.85-3.12
		c-0.02-1.54,1.22-2.65,3.08-3.23c1.26-0.39,2.85-0.47,4.43-0.47V19.7c0-1.35-0.88-1.99-1.69-1.99c-0.68,0-1.28,0.45-1.28,1.28
		c0.02,1.5-3.4,1.62-3.42,0.06c0-1.58,2.12-2.8,4.9-2.8c3.59,0,5.24,2.25,5.24,5.11v3.16c0,1.63,0.94,1.58,1.62,0.81l0.75,0.77
		c-1.07,1.2-2.01,1.54-3.27,1.54C48.45,27.63,47.27,27.01,47.02,25.73z M44.83,25.6c0.92,0,2.07-0.73,2.14-3.32v-0.41
		c-1.41,0-3.83,0.11-3.83,2.18C43.14,24.87,43.62,25.6,44.83,25.6z"/>
	<path class="st0" d="M52.72,21.98c0-3.19,2.63-5.77,5.88-5.77s5.33,1.63,5.05,3.7c-0.17,1.22-1.05,2.03-2.61,2.52
		c-1.09,0.34-2.54,0.51-4.28,0.19c0.06,1.77,1.6,3.08,3.21,3.19c1,0.08,2.27-0.36,3.04-1.22l0.75,0.77
		c-1.18,1.52-3.14,2.39-5.17,2.39C55.35,27.74,52.72,25.17,52.72,21.98z M61.04,19.63c0.34-1.16-0.6-2.01-1.56-1.92
		c-1.65,0.15-2.37,1.8-2.61,3.61C59.59,21.83,60.72,20.72,61.04,19.63z"/>
	<path class="st0" d="M70,27.38V16.83c0-1.99-0.75-2.22-1.31-2.55c1.09-1.43,4.09-1.5,4.94-1.09v4.55c0.43-0.94,1.65-1.48,2.55-1.48
		c2.33,0,4.38,1.35,4.38,5.11c0,2.22-1.37,6.22-5.35,6.27C72.73,27.67,72.07,26.8,70,27.38z M74.62,26.35
		c1.69,0,2.18-2.85,2.18-4.56c0-1.84-0.49-3.93-1.6-3.93c-1.03,0-1.58,1.5-1.58,3.55v2.76C73.63,25.86,73.93,26.35,74.62,26.35z"/>
	<path class="st0" d="M82.31,24.1v-3.31c0-1.99-0.62-2.78-1.18-3.12c1.09-1.43,3.94-1.5,4.79-1.09v2.52
		c1.07-3.14,3.89-7.72,6.8-7.72c1.22,0,1.93,0.94,1.93,1.9c0,1.03-0.81,2.08-2.59,2.05c-3.51-0.06-5.9,3.79-6.14,6.59v1.99
		c0,2.03,0.64,2.44,1.22,2.54l0.06,0.85h-6.16l0.06-0.85C81.67,26.35,82.31,25.88,82.31,24.1z M94.46,16.21
		c3.25,0,5.33,1.63,5.05,3.7c-0.17,1.22-1.05,2.03-2.61,2.52c-1.09,0.34-2.54,0.51-4.28,0.19c0.06,1.77,1.6,3.08,3.21,3.19
		c1,0.08,2.27-0.36,3.04-1.22l0.75,0.77c-1.18,1.52-3.14,2.39-5.17,2.39c-3.25,0-5.88-2.57-5.88-5.77
		C88.58,18.78,91.21,16.21,94.46,16.21z M96.9,19.63c0.34-1.16-0.6-2.01-1.56-1.92c-1.65,0.15-2.37,1.8-2.61,3.61
		C95.46,21.83,96.58,20.72,96.9,19.63z"/>
	<path class="st0" d="M101.13,23.63v-3.4c0-1.99-0.75-2.22-1.31-2.55c1.09-1.43,4.09-1.5,4.94-1.09v7.06c0,1.99,0.64,2.37,1.05,2.37
		c1.16,0,2.08-2.07,2.08-4.11v-1.67c0-1.99-0.75-2.22-1.32-2.55c1.09-1.43,4.09-1.5,4.94-1.09v7.33c0,2.03,0.64,2.44,1.22,2.54h0.02
		l0.04,0.85h-4.9v-1.73c-0.51,1.09-2.12,2.07-3.44,2.07C102.99,27.63,101.13,26.69,101.13,23.63z"/>
	<path class="st0" d="M114.49,23.91v-3.68c0-1.99-0.75-2.22-1.32-2.55c1.09-1.43,4.09-1.5,4.94-1.09v1.73
		c0.51-1.09,2.12-2.07,3.44-2.07c1.46,0,3.32,0.94,3.32,4v3.66c0,2.03,0.64,2.44,1.22,2.54l0.06,0.85h-6.12v-0.85
		c0.58-0.09,1.22-0.51,1.22-2.54v-3.68c0-1.99-0.64-2.37-1.05-2.37c-1.17,0-2.08,2.07-2.08,4.11v1.94c0,2.03,0.64,2.44,1.22,2.54
		v0.85h-6.12l0.06-0.85C113.85,26.35,114.49,25.94,114.49,23.91z"/>
	<path class="st0" d="M127.81,24.1v-3.31c0-1.99-0.62-2.78-1.18-3.12c1.09-1.43,3.96-1.5,4.81-1.09v7.33c0,2.03,0.64,2.44,1.22,2.54
		l0.06,0.85h-6.18l0.06-0.85C127.17,26.35,127.81,25.88,127.81,24.1z M130.04,11.29c1.07,0.13,1.8,1.15,1.58,2.29
		c-0.23,1.13-1.22,1.9-2.31,1.77c-1.07-0.13-1.8-1.13-1.58-2.27C127.96,11.91,128.97,11.16,130.04,11.29z"/>
	<path class="st0" d="M132.54,28.7c0-1.03,0.64-1.79,1.56-1.95c0.77-0.15,1.63,0.56,1.58,1.22c-0.06,0.77-0.49,0.85-0.49,1.39
		c0,0.64,1.31,1.18,2.72,1.18c1.86,0,2.89-0.77,2.89-1.6c0-1.17-1.3-1.32-2.99-1.63c-2.48-0.39-3.59-1.01-3.59-2.12
		c0-0.79,0.62-1.43,1.5-1.73c-1.56-0.64-2.44-1.84-2.44-3.31c0-2.08,1.95-3.78,5.11-3.78c0.68,0,1.31,0.08,1.88,0.23
		c-0.36-0.32-0.28-1.22,0.19-1.78c0.53-0.6,1.17-0.81,1.77-0.81c1.11,0,1.99,0.68,1.99,1.56c0,0.75-0.56,1.35-1.3,1.35
		c-0.66,0-1.43-0.43-1.24-1.13c-0.17-0.19-0.62-0.13-0.83,0.24c-0.19,0.34-0.09,0.56-0.06,0.73c1.71,0.6,2.7,1.9,2.7,3.38
		c0,2.08-1.95,3.78-5.11,3.78c-0.56,0-1.09-0.06-1.58-0.15c-0.43-0.04-0.77,0.19-0.77,0.54c0,0.49,1.05,0.47,2.18,0.53
		c3.27,0.11,5.88,0.75,5.88,3.02c0,2.16-2.48,3.62-6.2,3.62C134.65,31.5,132.54,30.39,132.54,28.7z M138.4,23.05
		c0.84,0,1.56-1.3,1.56-2.89s-0.71-2.91-1.56-2.91c-0.83,0-1.52,1.31-1.52,2.91S137.58,23.05,138.4,23.05z"/>
</g>
<g>
	<path class="st1" d="M28.05,37.64c-0.31,0-0.59-0.05-0.85-0.15c-0.26-0.1-0.49-0.24-0.68-0.43c-0.19-0.19-0.34-0.4-0.45-0.65
		s-0.16-0.52-0.16-0.82c0-0.3,0.05-0.57,0.16-0.82s0.26-0.47,0.45-0.65c0.19-0.19,0.42-0.33,0.69-0.43c0.26-0.1,0.55-0.15,0.85-0.15
		c0.34,0,0.66,0.06,0.94,0.18s0.51,0.29,0.7,0.53l-0.6,0.55c-0.13-0.16-0.28-0.27-0.45-0.35s-0.35-0.12-0.55-0.12
		c-0.19,0-0.36,0.03-0.51,0.09s-0.29,0.15-0.4,0.26c-0.11,0.11-0.2,0.25-0.26,0.4s-0.09,0.33-0.09,0.52c0,0.19,0.03,0.36,0.09,0.52
		s0.15,0.29,0.26,0.4c0.11,0.11,0.25,0.2,0.4,0.26s0.33,0.09,0.51,0.09c0.2,0,0.38-0.04,0.55-0.12s0.32-0.2,0.45-0.36l0.6,0.55
		c-0.19,0.23-0.42,0.41-0.7,0.53S28.4,37.64,28.05,37.64z"/>
	<path class="st1" d="M32.58,37.58V33.6h1.72c0.36,0,0.66,0.06,0.92,0.17c0.26,0.12,0.46,0.28,0.6,0.5s0.21,0.47,0.21,0.77
		c0,0.3-0.07,0.56-0.21,0.77s-0.34,0.38-0.6,0.49c-0.26,0.11-0.56,0.17-0.92,0.17h-1.22l0.42-0.4v1.51H32.58z M33.51,36.17
		l-0.42-0.44h1.16c0.28,0,0.49-0.06,0.64-0.18c0.14-0.12,0.22-0.29,0.22-0.51c0-0.22-0.07-0.39-0.22-0.51
		c-0.14-0.12-0.36-0.18-0.64-0.18h-1.16l0.42-0.44V36.17z M35.11,37.58l-1-1.44h0.99l1,1.44H35.11z"/>
	<path class="st1" d="M39.94,36.84h2.16v0.74h-3.08V33.6h3v0.74h-2.09V36.84z M39.87,35.2h1.91v0.72h-1.91V35.2z"/>
	<path class="st1" d="M44.59,37.58l1.77-3.98h0.91l1.78,3.98h-0.97l-1.46-3.51h0.37l-1.46,3.51H44.59z M45.48,36.72l0.23-0.7h2.06
		l0.24,0.7H45.48z"/>
	<path class="st1" d="M52.36,37.58v-3.23h-1.27V33.6h3.46v0.75h-1.27v3.23H52.36z"/>
	<path class="st1" d="M57.32,37.58V33.6h0.93v3.98H57.32z"/>
	<path class="st1" d="M62.62,37.58L60.9,33.6h1l1.5,3.52h-0.58l1.52-3.52h0.91l-1.72,3.98H62.62z"/>
	<path class="st1" d="M68.77,36.84h2.16v0.74h-3.08V33.6h3v0.74h-2.09V36.84z M68.7,35.2h1.91v0.72H68.7V35.2z"/>
	<path class="st1" d="M77.81,37.58V33.6h1.81c0.43,0,0.81,0.08,1.14,0.25s0.59,0.4,0.77,0.69c0.19,0.3,0.28,0.65,0.28,1.05
		c0,0.4-0.09,0.75-0.28,1.05c-0.19,0.3-0.44,0.53-0.77,0.69s-0.71,0.25-1.14,0.25H77.81z M78.74,36.83h0.83
		c0.26,0,0.49-0.05,0.69-0.15c0.2-0.1,0.35-0.24,0.46-0.43c0.11-0.19,0.16-0.41,0.16-0.66c0-0.25-0.05-0.47-0.16-0.66
		c-0.11-0.19-0.26-0.33-0.46-0.43s-0.42-0.15-0.69-0.15h-0.83V36.83z"/>
	<path class="st1" d="M85.69,36.84h2.16v0.74h-3.08V33.6h3v0.74h-2.09V36.84z M85.62,35.2h1.91v0.72h-1.91V35.2z"/>
	<path class="st1" d="M92.17,37.64c-0.32,0-0.62-0.04-0.92-0.13c-0.29-0.08-0.53-0.2-0.71-0.33l0.31-0.69
		c0.17,0.12,0.37,0.22,0.6,0.3c0.24,0.08,0.47,0.12,0.71,0.12c0.18,0,0.33-0.02,0.44-0.06c0.11-0.04,0.19-0.09,0.25-0.15
		s0.08-0.13,0.08-0.22c0-0.11-0.04-0.19-0.12-0.25c-0.08-0.06-0.19-0.11-0.33-0.15c-0.14-0.04-0.29-0.08-0.45-0.11
		c-0.16-0.04-0.33-0.08-0.49-0.13c-0.17-0.05-0.32-0.12-0.46-0.21c-0.14-0.08-0.25-0.2-0.33-0.33c-0.08-0.14-0.12-0.31-0.12-0.52
		c0-0.23,0.06-0.43,0.18-0.62s0.31-0.34,0.55-0.45c0.25-0.11,0.56-0.17,0.93-0.17c0.25,0,0.5,0.03,0.74,0.09s0.46,0.15,0.64,0.26
		l-0.29,0.69c-0.18-0.1-0.36-0.18-0.55-0.23c-0.19-0.05-0.37-0.08-0.54-0.08c-0.18,0-0.33,0.02-0.44,0.06
		c-0.11,0.04-0.19,0.09-0.24,0.16s-0.08,0.14-0.08,0.23c0,0.11,0.04,0.19,0.12,0.25c0.08,0.06,0.19,0.12,0.33,0.15
		c0.14,0.04,0.29,0.07,0.45,0.11s0.33,0.08,0.49,0.13c0.16,0.05,0.31,0.12,0.45,0.2c0.14,0.08,0.25,0.19,0.33,0.33
		c0.08,0.14,0.13,0.31,0.13,0.51c0,0.22-0.06,0.43-0.18,0.61s-0.31,0.33-0.56,0.45C92.86,37.59,92.55,37.64,92.17,37.64z"/>
	<path class="st1" d="M96.75,37.58V33.6h0.93v3.98H96.75z"/>
	<path class="st1" d="M102.81,37.64c-0.31,0-0.6-0.05-0.87-0.15c-0.27-0.1-0.49-0.24-0.69-0.43s-0.34-0.4-0.45-0.65
		c-0.11-0.25-0.16-0.52-0.16-0.82c0-0.3,0.05-0.57,0.16-0.82c0.11-0.25,0.26-0.47,0.46-0.65c0.2-0.19,0.43-0.33,0.69-0.43
		c0.27-0.1,0.56-0.15,0.88-0.15c0.35,0,0.67,0.06,0.95,0.18c0.28,0.12,0.52,0.29,0.71,0.51l-0.58,0.54
		c-0.15-0.16-0.31-0.27-0.48-0.34c-0.17-0.07-0.36-0.11-0.56-0.11c-0.19,0-0.36,0.03-0.52,0.09c-0.16,0.06-0.3,0.15-0.41,0.26
		c-0.12,0.11-0.2,0.25-0.27,0.4s-0.09,0.33-0.09,0.52c0,0.18,0.03,0.35,0.09,0.51s0.15,0.29,0.27,0.41c0.12,0.11,0.25,0.2,0.41,0.27
		c0.16,0.06,0.33,0.1,0.52,0.1c0.18,0,0.36-0.03,0.53-0.09c0.17-0.06,0.34-0.16,0.5-0.3l0.52,0.66c-0.22,0.17-0.47,0.29-0.75,0.38
		S103.09,37.64,102.81,37.64z M103.58,37.02v-1.49h0.84v1.61L103.58,37.02z"/>
	<path class="st1" d="M107.54,37.58V33.6h0.76l2.35,2.86h-0.37V33.6h0.91v3.98h-0.76l-2.35-2.86h0.37v2.86H107.54z"/>
	<path class="st1" d="M115.31,36.84h2.16v0.74h-3.08V33.6h3v0.74h-2.09V36.84z M115.25,35.2h1.91v0.72h-1.91V35.2z"/>
	<path class="st1" d="M120.48,37.58V33.6h1.72c0.36,0,0.66,0.06,0.92,0.17c0.26,0.12,0.46,0.28,0.6,0.5
		c0.14,0.22,0.21,0.47,0.21,0.77c0,0.3-0.07,0.56-0.21,0.77c-0.14,0.21-0.34,0.38-0.6,0.49c-0.26,0.11-0.56,0.17-0.92,0.17h-1.22
		l0.42-0.4v1.51H120.48z M121.41,36.17l-0.42-0.44h1.17c0.28,0,0.49-0.06,0.64-0.18s0.22-0.29,0.22-0.51c0-0.22-0.07-0.39-0.22-0.51
		s-0.36-0.18-0.64-0.18h-1.17l0.42-0.44V36.17z M123.02,37.58l-1-1.44H123l1,1.44H123.02z"/>
</g>
</svg>
