<?xml version="1.0" encoding="utf-8"?>
<!-- Generator: Adobe Illustrator 27.5.0, SVG Export Plug-In . SVG Version: 6.00 Build 0)  -->
<svg version="1.1" id="Layer_1" xmlns="http://www.w3.org/2000/svg" xmlns:xlink="http://www.w3.org/1999/xlink" x="0px" y="0px"
	 viewBox="0 0 75 25" style="enable-background:new 0 0 75 25;" xml:space="preserve">
<style type="text/css">
	.st0{fill:#373833;}
	.st1{fill:#C04327;}
</style>
<g>
	<path class="st0" d="M4.08-27.3c0.52-0.68,1.96-0.72,2.37-0.52v4.83c0,1.66-1.01,2.65-2.72,2.65v-0.47
		c0.51-0.14,0.92-0.64,0.92-1.51v-3.48C4.64-26.76,4.35-27.13,4.08-27.3z M5.72-30.36c0.51,0.06,0.86,0.55,0.76,1.1
		c-0.11,0.54-0.59,0.91-1.11,0.85c-0.51-0.06-0.86-0.54-0.76-1.09C4.72-30.06,5.2-30.42,5.72-30.36z"/>
	<path class="st0" d="M10.75-23.43c-0.01,0.02-0.01,0.03-0.02,0.04c-0.23,0.5-0.98,0.88-1.77,0.87c-1.23-0.01-1.84-0.68-1.85-1.5
		c-0.01-0.74,0.59-1.27,1.48-1.55c0.6-0.19,1.37-0.23,2.13-0.23v-0.53c0-0.65-0.42-0.95-0.81-0.95c-0.32,0-0.61,0.22-0.61,0.61
		c0.01,0.72-1.63,0.77-1.64,0.03c0-0.76,1.02-1.34,2.35-1.34c1.72,0,2.51,1.08,2.51,2.45v1.51c0,0.78,0.45,0.76,0.77,0.39l0.36,0.37
		c-0.51,0.58-0.96,0.74-1.57,0.74C11.44-22.52,10.87-22.82,10.75-23.43z M9.7-23.49c0.44,0,0.99-0.35,1.03-1.59v-0.2
		c-0.68,0-1.84,0.05-1.84,1.04C8.89-23.85,9.12-23.49,9.7-23.49z"/>
	<path class="st0" d="M14.38-24.3v-1.77c0-0.95-0.36-1.06-0.63-1.23c0.52-0.68,1.96-0.72,2.37-0.52v0.83
		c0.24-0.52,1.02-0.99,1.65-0.99c0.7,0,1.59,0.45,1.59,1.92v1.76c0,0.97,0.31,1.17,0.59,1.22l0.03,0.41h-2.94v-0.41
		c0.28-0.04,0.59-0.24,0.59-1.22v-1.77c0-0.95-0.31-1.14-0.5-1.14c-0.56,0-1,0.99-1,1.97v0.93c0,0.97,0.31,1.17,0.59,1.22v0.41
		h-2.94l0.03-0.41C14.08-23.13,14.38-23.33,14.38-24.3z"/>
	<path class="st0" d="M23.88-23.43c-0.01,0.02-0.01,0.03-0.02,0.04c-0.23,0.5-0.98,0.88-1.77,0.87c-1.23-0.01-1.84-0.68-1.85-1.5
		c-0.01-0.74,0.59-1.27,1.48-1.55c0.6-0.19,1.37-0.23,2.13-0.23v-0.53c0-0.65-0.42-0.95-0.81-0.95c-0.32,0-0.61,0.22-0.61,0.61
		c0.01,0.72-1.63,0.77-1.64,0.03c0-0.76,1.02-1.34,2.35-1.34c1.72,0,2.51,1.08,2.51,2.45v1.51c0,0.78,0.45,0.76,0.77,0.39l0.36,0.37
		c-0.51,0.58-0.96,0.74-1.57,0.74C24.57-22.52,24-22.82,23.88-23.43z M22.83-23.49c0.44,0,0.99-0.35,1.03-1.59v-0.2
		c-0.68,0-1.84,0.05-1.84,1.04C22.02-23.85,22.25-23.49,22.83-23.49z"/>
	<path class="st0" d="M26.61-25.23c0-1.53,1.26-2.77,2.82-2.77s2.56,0.78,2.42,1.77c-0.08,0.59-0.5,0.97-1.25,1.21
		c-0.52,0.16-1.22,0.24-2.05,0.09c0.03,0.85,0.77,1.48,1.54,1.53c0.48,0.04,1.09-0.17,1.46-0.59l0.36,0.37
		c-0.57,0.73-1.5,1.14-2.48,1.14C27.87-22.47,26.61-23.7,26.61-25.23z M30.6-26.36c0.16-0.56-0.29-0.96-0.75-0.92
		c-0.79,0.07-1.14,0.86-1.25,1.73C29.91-25.3,30.45-25.84,30.6-26.36z"/>
	<path class="st0" d="M34.9-22.64v-5.06c0-0.95-0.36-1.06-0.63-1.23c0.52-0.68,1.96-0.72,2.37-0.52v2.18
		c0.21-0.45,0.79-0.71,1.23-0.71c1.12,0,2.1,0.65,2.1,2.45c0,1.06-0.66,2.98-2.57,3.01C36.21-22.5,35.89-22.92,34.9-22.64z
		 M37.12-23.13c0.81,0,1.04-1.37,1.04-2.19c0-0.88-0.23-1.88-0.77-1.88c-0.5,0-0.76,0.72-0.76,1.7v1.32
		C36.64-23.37,36.78-23.13,37.12-23.13z"/>
	<path class="st0" d="M40.8-24.21v-1.59c0-0.95-0.3-1.33-0.57-1.5c0.52-0.68,1.89-0.72,2.3-0.52v1.21c0.51-1.5,1.87-3.7,3.26-3.7
		c0.59,0,0.93,0.45,0.93,0.91c0,0.5-0.39,1-1.24,0.98c-1.68-0.03-2.83,1.82-2.95,3.16v0.95c0,0.97,0.31,1.17,0.59,1.22l0.03,0.41
		h-2.95l0.03-0.41C40.5-23.13,40.8-23.36,40.8-24.21z M46.63-28c1.56,0,2.56,0.78,2.42,1.77c-0.08,0.59-0.5,0.97-1.25,1.21
		c-0.52,0.16-1.22,0.24-2.05,0.09c0.03,0.85,0.77,1.48,1.54,1.53c0.48,0.04,1.09-0.17,1.46-0.59l0.36,0.37
		c-0.57,0.73-1.5,1.14-2.48,1.14c-1.56,0-2.82-1.23-2.82-2.77C43.81-26.76,45.07-28,46.63-28z M47.8-26.36
		c0.16-0.56-0.29-0.96-0.75-0.92c-0.79,0.07-1.14,0.86-1.25,1.73C47.11-25.3,47.65-25.84,47.8-26.36z"/>
	<path class="st0" d="M49.83-24.44v-1.63c0-0.95-0.36-1.06-0.63-1.23c0.52-0.68,1.96-0.72,2.37-0.52v3.39c0,0.95,0.31,1.14,0.5,1.14
		c0.56,0,1-0.99,1-1.97v-0.8c0-0.95-0.36-1.06-0.63-1.23c0.52-0.68,1.96-0.72,2.37-0.52v3.51c0,0.97,0.31,1.17,0.59,1.22h0.01
		l0.02,0.41h-2.35v-0.83c-0.24,0.52-1.02,0.99-1.65,0.99C50.72-22.52,49.83-22.97,49.83-24.44z"/>
	<path class="st0" d="M56.24-24.3v-1.77c0-0.95-0.36-1.06-0.63-1.23c0.52-0.68,1.96-0.72,2.37-0.52v0.83
		c0.24-0.52,1.02-0.99,1.65-0.99c0.7,0,1.59,0.45,1.59,1.92v1.76c0,0.97,0.31,1.17,0.59,1.22l0.03,0.41H58.9v-0.41
		c0.28-0.04,0.59-0.24,0.59-1.22v-1.77c0-0.95-0.31-1.14-0.5-1.14c-0.56,0-1,0.99-1,1.97v0.93c0,0.97,0.31,1.17,0.59,1.22v0.41
		h-2.94l0.03-0.41C55.93-23.13,56.24-23.33,56.24-24.3z"/>
	<path class="st0" d="M62.63-24.21v-1.59c0-0.95-0.3-1.33-0.57-1.5c0.52-0.68,1.9-0.72,2.31-0.52v3.51c0,0.97,0.31,1.17,0.59,1.22
		l0.03,0.41h-2.96l0.03-0.41C62.32-23.13,62.63-23.36,62.63-24.21z M63.7-30.36c0.51,0.06,0.87,0.55,0.76,1.1
		c-0.11,0.54-0.59,0.91-1.11,0.85c-0.51-0.06-0.86-0.54-0.76-1.09C62.7-30.06,63.18-30.42,63.7-30.36z"/>
	<path class="st0" d="M64.9-22.01c0-0.5,0.31-0.86,0.75-0.94c0.37-0.07,0.78,0.27,0.76,0.59c-0.03,0.37-0.23,0.41-0.23,0.67
		c0,0.31,0.63,0.57,1.31,0.57c0.89,0,1.39-0.37,1.39-0.77c0-0.56-0.62-0.63-1.43-0.78c-1.19-0.19-1.72-0.49-1.72-1.02
		c0-0.38,0.3-0.68,0.72-0.83c-0.75-0.31-1.17-0.88-1.17-1.59c0-1,0.94-1.81,2.45-1.81c0.32,0,0.63,0.04,0.9,0.11
		c-0.17-0.15-0.13-0.59,0.09-0.86c0.25-0.29,0.56-0.39,0.85-0.39c0.53,0,0.95,0.32,0.95,0.75c0,0.36-0.27,0.65-0.62,0.65
		c-0.32,0-0.68-0.21-0.59-0.54c-0.08-0.09-0.3-0.06-0.4,0.12c-0.09,0.16-0.04,0.27-0.03,0.35c0.82,0.29,1.3,0.91,1.3,1.62
		c0,1-0.94,1.81-2.45,1.81c-0.27,0-0.52-0.03-0.76-0.07c-0.21-0.02-0.37,0.09-0.37,0.26c0,0.23,0.5,0.23,1.05,0.25
		c1.57,0.05,2.82,0.36,2.82,1.45c0,1.04-1.19,1.74-2.97,1.74C65.91-20.67,64.9-21.2,64.9-22.01z M67.71-24.72
		c0.41,0,0.75-0.62,0.75-1.39c0-0.77-0.34-1.4-0.75-1.4c-0.4,0-0.73,0.63-0.73,1.4C66.98-25.34,67.31-24.72,67.71-24.72z"/>
</g>
<g>
	<path class="st1" d="M14.78-17.72c-0.15,0-0.28-0.02-0.41-0.07c-0.13-0.05-0.24-0.12-0.33-0.21c-0.09-0.09-0.16-0.19-0.22-0.31
		c-0.05-0.12-0.08-0.25-0.08-0.4c0-0.14,0.03-0.27,0.08-0.39c0.05-0.12,0.12-0.22,0.22-0.31c0.09-0.09,0.2-0.16,0.33-0.21
		c0.13-0.05,0.26-0.07,0.41-0.07c0.17,0,0.31,0.03,0.45,0.09c0.13,0.06,0.25,0.14,0.34,0.25l-0.29,0.26
		c-0.06-0.07-0.14-0.13-0.22-0.17s-0.17-0.06-0.26-0.06c-0.09,0-0.17,0.01-0.25,0.04c-0.07,0.03-0.14,0.07-0.19,0.13
		c-0.05,0.05-0.1,0.12-0.13,0.19c-0.03,0.07-0.04,0.16-0.04,0.25c0,0.09,0.01,0.17,0.04,0.25c0.03,0.07,0.07,0.14,0.13,0.19
		c0.05,0.05,0.12,0.1,0.19,0.13c0.07,0.03,0.16,0.04,0.25,0.04c0.09,0,0.18-0.02,0.26-0.06c0.08-0.04,0.15-0.1,0.22-0.17l0.29,0.26
		c-0.09,0.11-0.2,0.2-0.34,0.25C15.1-17.75,14.95-17.72,14.78-17.72z"/>
	<path class="st1" d="M16.95-17.75v-1.91h0.83c0.17,0,0.32,0.03,0.44,0.08c0.12,0.06,0.22,0.13,0.29,0.24
		c0.07,0.1,0.1,0.23,0.1,0.37c0,0.14-0.03,0.27-0.1,0.37c-0.07,0.1-0.16,0.18-0.29,0.23c-0.12,0.05-0.27,0.08-0.44,0.08H17.2
		l0.2-0.19v0.72H16.95z M17.4-18.43l-0.2-0.21h0.56c0.13,0,0.24-0.03,0.31-0.09c0.07-0.06,0.1-0.14,0.1-0.25
		c0-0.1-0.03-0.19-0.1-0.24c-0.07-0.06-0.17-0.09-0.31-0.09H17.2l0.2-0.21V-18.43z M18.17-17.75l-0.48-0.69h0.47l0.48,0.69H18.17z"
		/>
	<path class="st1" d="M20.48-18.1h1.04v0.35h-1.48v-1.91h1.44v0.35h-1V-18.1z M20.45-18.89h0.92v0.35h-0.92V-18.89z"/>
	<path class="st1" d="M22.71-17.75l0.85-1.91H24l0.86,1.91h-0.46l-0.7-1.68h0.18l-0.7,1.68H22.71z M23.14-18.16l0.11-0.34h0.99
		l0.11,0.34H23.14z"/>
	<path class="st1" d="M26.44-17.75v-1.55h-0.61v-0.36h1.66v0.36h-0.61v1.55H26.44z"/>
	<path class="st1" d="M28.82-17.75v-1.91h0.44v1.91H28.82z"/>
	<path class="st1" d="M31.36-17.75l-0.83-1.91h0.48l0.72,1.69h-0.28l0.73-1.69h0.44l-0.83,1.91H31.36z"/>
	<path class="st1" d="M34.31-18.1h1.04v0.35h-1.48v-1.91h1.44v0.35h-1V-18.1z M34.28-18.89h0.92v0.35h-0.92V-18.89z"/>
	<path class="st1" d="M38.65-17.75v-1.91h0.87c0.21,0,0.39,0.04,0.55,0.12c0.16,0.08,0.28,0.19,0.37,0.33
		c0.09,0.14,0.13,0.31,0.13,0.5c0,0.19-0.04,0.36-0.13,0.5c-0.09,0.14-0.21,0.25-0.37,0.33c-0.16,0.08-0.34,0.12-0.55,0.12H38.65z
		 M39.09-18.11h0.4c0.13,0,0.24-0.02,0.33-0.07c0.09-0.05,0.17-0.12,0.22-0.21c0.05-0.09,0.08-0.19,0.08-0.31
		c0-0.12-0.03-0.23-0.08-0.32c-0.05-0.09-0.12-0.16-0.22-0.21c-0.09-0.05-0.2-0.07-0.33-0.07h-0.4V-18.11z"/>
	<path class="st1" d="M42.43-18.1h1.04v0.35h-1.48v-1.91h1.44v0.35h-1V-18.1z M42.39-18.89h0.92v0.35h-0.92V-18.89z"/>
	<path class="st1" d="M45.53-17.72c-0.15,0-0.3-0.02-0.44-0.06c-0.14-0.04-0.25-0.09-0.34-0.16l0.15-0.33
		c0.08,0.06,0.18,0.11,0.29,0.14c0.11,0.04,0.23,0.06,0.34,0.06c0.09,0,0.16-0.01,0.21-0.03c0.05-0.02,0.09-0.04,0.12-0.07
		c0.03-0.03,0.04-0.06,0.04-0.1c0-0.05-0.02-0.09-0.06-0.12c-0.04-0.03-0.09-0.05-0.16-0.07c-0.07-0.02-0.14-0.04-0.22-0.05
		c-0.08-0.02-0.16-0.04-0.24-0.06c-0.08-0.02-0.15-0.06-0.22-0.1c-0.07-0.04-0.12-0.09-0.16-0.16C44.82-18.91,44.8-19,44.8-19.1
		c0-0.11,0.03-0.21,0.09-0.3s0.15-0.16,0.27-0.21c0.12-0.05,0.27-0.08,0.45-0.08c0.12,0,0.24,0.01,0.36,0.04
		c0.12,0.03,0.22,0.07,0.31,0.13l-0.14,0.33c-0.09-0.05-0.17-0.09-0.26-0.11c-0.09-0.02-0.18-0.04-0.26-0.04
		c-0.09,0-0.16,0.01-0.21,0.03c-0.05,0.02-0.09,0.04-0.12,0.08c-0.02,0.03-0.04,0.07-0.04,0.11c0,0.05,0.02,0.09,0.06,0.12
		c0.04,0.03,0.09,0.06,0.16,0.07c0.07,0.02,0.14,0.03,0.22,0.05c0.08,0.02,0.16,0.04,0.24,0.06c0.08,0.03,0.15,0.06,0.22,0.1
		c0.07,0.04,0.12,0.09,0.16,0.16c0.04,0.07,0.06,0.15,0.06,0.25c0,0.11-0.03,0.21-0.09,0.29c-0.06,0.09-0.15,0.16-0.27,0.21
		C45.86-17.75,45.71-17.72,45.53-17.72z"/>
	<path class="st1" d="M47.73-17.75v-1.91h0.44v1.91H47.73z"/>
	<path class="st1" d="M50.64-17.72c-0.15,0-0.29-0.02-0.42-0.07c-0.13-0.05-0.24-0.12-0.33-0.21c-0.09-0.09-0.16-0.19-0.22-0.31
		c-0.05-0.12-0.08-0.25-0.08-0.4c0-0.14,0.03-0.27,0.08-0.39c0.05-0.12,0.12-0.22,0.22-0.31c0.09-0.09,0.21-0.16,0.33-0.21
		c0.13-0.05,0.27-0.07,0.42-0.07c0.17,0,0.32,0.03,0.46,0.08c0.14,0.06,0.25,0.14,0.34,0.25l-0.28,0.26
		c-0.07-0.07-0.15-0.13-0.23-0.16c-0.08-0.04-0.17-0.05-0.27-0.05c-0.09,0-0.17,0.01-0.25,0.04c-0.08,0.03-0.14,0.07-0.2,0.13
		c-0.06,0.05-0.1,0.12-0.13,0.19s-0.04,0.16-0.04,0.25c0,0.09,0.01,0.17,0.04,0.24s0.07,0.14,0.13,0.19c0.06,0.05,0.12,0.1,0.2,0.13
		c0.07,0.03,0.16,0.05,0.25,0.05c0.09,0,0.17-0.01,0.25-0.04c0.08-0.03,0.16-0.08,0.24-0.14l0.25,0.32
		c-0.11,0.08-0.23,0.14-0.36,0.18C50.91-17.74,50.77-17.72,50.64-17.72z M51-18.02v-0.72h0.4v0.77L51-18.02z"/>
	<path class="st1" d="M52.9-17.75v-1.91h0.36l1.13,1.37h-0.18v-1.37h0.44v1.91h-0.36l-1.13-1.37h0.18v1.37H52.9z"/>
	<path class="st1" d="M56.63-18.1h1.04v0.35H56.2v-1.91h1.44v0.35h-1V-18.1z M56.6-18.89h0.92v0.35H56.6V-18.89z"/>
	<path class="st1" d="M59.11-17.75v-1.91h0.83c0.17,0,0.32,0.03,0.44,0.08c0.12,0.06,0.22,0.13,0.29,0.24
		c0.07,0.1,0.1,0.23,0.1,0.37c0,0.14-0.03,0.27-0.1,0.37c-0.07,0.1-0.16,0.18-0.29,0.23c-0.12,0.05-0.27,0.08-0.44,0.08h-0.58
		l0.2-0.19v0.72H59.11z M59.56-18.43l-0.2-0.21h0.56c0.13,0,0.24-0.03,0.3-0.09c0.07-0.06,0.1-0.14,0.1-0.25
		c0-0.1-0.03-0.19-0.1-0.24c-0.07-0.06-0.17-0.09-0.3-0.09h-0.56l0.2-0.21V-18.43z M60.33-17.75l-0.48-0.69h0.47l0.48,0.69H60.33z"
		/>
</g>
<g>
	<path class="st0" d="M9.47,50.17c0-0.51,0.31-0.88,0.77-0.96c0.38-0.07,0.8,0.28,0.78,0.6c-0.03,0.38-0.24,0.42-0.24,0.68
		c0,0.31,0.65,0.58,1.34,0.58c0.92,0,1.42-0.38,1.42-0.79c0-0.57-0.64-0.65-1.47-0.8c-1.22-0.19-1.77-0.5-1.77-1.04
		c0-0.39,0.31-0.7,0.74-0.85c-0.77-0.31-1.2-0.91-1.2-1.63c0-1.03,0.96-1.86,2.51-1.86c0.33,0,0.65,0.04,0.92,0.11
		c-0.18-0.16-0.14-0.6,0.09-0.88c0.26-0.3,0.57-0.4,0.87-0.4c0.55,0,0.98,0.33,0.98,0.77c0,0.37-0.28,0.67-0.64,0.67
		c-0.32,0-0.7-0.21-0.61-0.55c-0.08-0.09-0.31-0.06-0.41,0.12c-0.09,0.17-0.05,0.28-0.03,0.36c0.84,0.3,1.33,0.93,1.33,1.66
		c0,1.03-0.96,1.86-2.51,1.86c-0.28,0-0.54-0.03-0.78-0.07c-0.21-0.02-0.38,0.09-0.38,0.27c0,0.24,0.52,0.23,1.07,0.26
		c1.61,0.06,2.89,0.37,2.89,1.49c0,1.06-1.22,1.78-3.05,1.78C10.51,51.55,9.47,51.01,9.47,50.17z M12.36,47.39
		c0.42,0,0.77-0.64,0.77-1.42c0-0.79-0.35-1.43-0.77-1.43c-0.41,0-0.75,0.65-0.75,1.43C11.61,46.75,11.95,47.39,12.36,47.39z"/>
	<path class="st0" d="M15.42,46.86c0-1.57,1.29-2.84,2.89-2.84s2.63,0.8,2.49,1.82c-0.08,0.6-0.52,1-1.28,1.24
		c-0.54,0.17-1.25,0.25-2.11,0.09c0.03,0.87,0.79,1.52,1.58,1.57c0.49,0.04,1.12-0.18,1.5-0.6l0.37,0.38
		c-0.58,0.75-1.54,1.17-2.54,1.17C16.71,49.7,15.42,48.44,15.42,46.86z M19.52,45.71c0.17-0.57-0.3-0.99-0.77-0.94
		c-0.81,0.07-1.17,0.89-1.29,1.78C18.8,46.79,19.36,46.25,19.52,45.71z"/>
	<path class="st0" d="M20.95,44.86V44.4c1.28-0.42,1.81-1.11,2.28-1.73h0.21v1.54h0.98v0.65h-0.98v3.25c0,0.8,0.46,0.78,0.8,0.4
		l0.37,0.38c-0.53,0.59-0.99,0.76-1.61,0.76c-0.77,0-1.41-0.39-1.41-1.19v-3.6H20.95z"/>
	<path class="st0" d="M27.64,47.91v-1.63c0-0.98-0.3-1.37-0.58-1.53c0.54-0.7,1.95-0.74,2.37-0.54v3.61c0,1,0.31,1.2,0.6,1.25
		l0.03,0.42h-3.04l0.03-0.42C27.33,49.02,27.64,48.79,27.64,47.91z M28.74,41.6c0.53,0.06,0.89,0.56,0.78,1.13
		c-0.11,0.55-0.6,0.93-1.14,0.87c-0.53-0.06-0.89-0.55-0.78-1.12C27.72,41.91,28.22,41.54,28.74,41.6z"/>
	<path class="st0" d="M30.89,47.82V46c0-0.98-0.37-1.09-0.65-1.26c0.54-0.7,2.02-0.74,2.43-0.54v0.85c0.25-0.54,1.04-1.02,1.69-1.02
		c0.72,0,1.64,0.46,1.64,1.97v1.8c0,1,0.31,1.2,0.6,1.25l0.03,0.42h-3.01v-0.42c0.29-0.05,0.6-0.25,0.6-1.25V46
		c0-0.98-0.31-1.17-0.52-1.17c-0.57,0-1.03,1.02-1.03,2.02v0.95c0,1,0.31,1.2,0.6,1.25v0.42h-3.01l0.03-0.42
		C30.57,49.02,30.89,48.82,30.89,47.82z"/>
	<path class="st0" d="M39.03,44.86V44.4c1.28-0.42,1.81-1.11,2.28-1.73h0.21v1.54h0.98v0.65h-0.98v3.25c0,0.8,0.46,0.78,0.8,0.4
		l0.37,0.38c-0.53,0.59-0.99,0.76-1.61,0.76c-0.77,0-1.41-0.39-1.41-1.19v-3.6H39.03z"/>
	<path class="st0" d="M42.69,46.84c0-1.51,1.04-2.73,2.76-2.73c1.7,0,2.75,1.22,2.75,2.73c0,1.51-1.04,2.74-2.75,2.74
		C43.74,49.57,42.69,48.34,42.69,46.84z M45.45,48.94c0.48,0,0.9-0.94,0.9-2.1c0-1.15-0.42-2.1-0.9-2.1c-0.48,0-0.89,0.95-0.89,2.1
		C44.56,47.99,44.97,48.94,45.45,48.94z"/>
	<path class="st0" d="M48.84,47.68V46c0-0.98-0.37-1.09-0.65-1.26c0.54-0.7,2.02-0.74,2.43-0.54v3.48c0,0.98,0.31,1.16,0.52,1.16
		c0.57,0,1.03-1.02,1.03-2.02V46c0-0.98-0.37-1.09-0.65-1.26c0.54-0.7,2.02-0.74,2.43-0.54v3.61c0,1,0.31,1.2,0.6,1.25h0.01
		l0.02,0.42h-2.41v-0.85c-0.25,0.54-1.04,1.02-1.69,1.02C49.76,49.65,48.84,49.19,48.84,47.68z"/>
	<path class="st0" d="M54.77,46.88c0-1.57,1.29-2.84,2.89-2.84c1.07,0,1.96,0.48,2.27,1.28c0.48,1.28-1.75,1.45-1.42,0.08
		c0.08-0.35,0.01-0.67-0.41-0.63c-0.83,0.07-1.38,1.09-1.38,2.09c0,1.07,0.65,1.81,1.62,1.88c0.49,0.04,1.12-0.18,1.5-0.6l0.37,0.38
		c-0.58,0.75-1.54,1.17-2.54,1.17C56.06,49.7,54.77,48.45,54.77,46.88z"/>
	<path class="st0" d="M60.94,47.82v-3.66c0-0.98-0.37-1.09-0.65-1.26c0.54-0.7,2.02-0.74,2.43-0.54v2.41
		c0.22-0.46,0.85-0.73,1.42-0.73c0.8,0,1.72,0.46,1.72,1.97v1.8c0,1,0.31,1.2,0.6,1.25l0.03,0.42h-3.01v-0.42
		c0.29-0.05,0.6-0.25,0.6-1.25V46c0-0.98-0.4-1.17-0.58-1.17c-0.51,0-0.78,0.74-0.78,1.75v1.23c0,1,0.31,1.2,0.6,1.25v0.42h-3.01
		l0.03-0.42C60.63,49.02,60.94,48.82,60.94,47.82z"/>
</g>
<g>
	<path class="st0" d="M17.55,13.16v-1.81c0-0.98-0.37-1.09-0.65-1.26c0.54-0.7,1.9-0.74,2.31-0.54v0.85
		c0.25-0.54,1.04-1.02,1.69-1.02c0.59,0,1.23,0.31,1.44,1.26c0.09-0.62,1.03-1.25,1.77-1.25c0.72,0,1.52,0.46,1.52,1.97v1.8
		c0,1,0.31,1.19,0.6,1.24l0.03,0.42h-2.89v-0.42c0.29-0.05,0.6-0.24,0.6-1.24v-1.81c0-0.98-0.31-1.16-0.52-1.16
		c-0.57,0-1.03,1.02-1.03,2.02v0.94c0,1,0.31,1.2,0.6,1.25v0.42h-2.87v-0.42c0.29-0.05,0.6-0.25,0.6-1.25v-1.81
		c0-0.98-0.31-1.17-0.52-1.17c-0.57,0-1.03,1.02-1.03,2.02v0.95c0,1,0.31,1.2,0.6,1.25v0.42h-2.89l0.03-0.42
		C17.24,14.36,17.55,14.16,17.55,13.16z"/>
	<path class="st0" d="M27.26,11.11c-0.35-0.69-0.58-0.85-1.04-0.9l0.06-0.66h3.29v0.66c-0.55,0.01-0.74,0.14-0.57,0.67l0.94,2.41
		l0.86-2.38c0.18-0.55-0.06-0.7-0.56-0.7l-0.01-0.67h2.23l-0.06,0.67c-0.47,0.05-0.79,0.21-1.04,0.94l-1.32,3.66
		c-0.49,1.48-1.17,2.4-2.53,2.4c-0.65,0-0.95-0.39-0.95-0.8c0-0.45,0.36-0.89,1.04-0.62c1.08,0.43,1.55-0.09,1.25-0.89L27.26,11.11z
		"/>
	<path class="st0" d="M38.41,11.95l-1.04,2.88h-1.32l-1.46-3.71c-0.35-0.7-0.56-0.86-1.03-0.91l0.06-0.66h3.23l-0.01,0.66
		c-0.25,0.03-0.64,0.2-0.51,0.66l0.95,2.43l0.8-2.18c-0.35-0.7-0.5-0.86-0.96-0.91V9.55h3.43v0.66c-0.55,0.01-0.88,0.14-0.71,0.67
		l0.89,2.26l0.8-2.21c0.18-0.56-0.19-0.71-0.7-0.71l-0.01-0.67h2.37l-0.06,0.67c-0.47,0.05-0.79,0.21-1.04,0.94l-1.32,3.66h-1.2
		L38.41,11.95z"/>
	<path class="st0" d="M42.95,12.18c0-1.51,1.04-2.73,2.76-2.73c1.7,0,2.75,1.22,2.75,2.73c0,1.51-1.04,2.74-2.75,2.74
		C43.99,14.92,42.95,13.69,42.95,12.18z M45.7,14.28c0.48,0,0.9-0.94,0.9-2.1c0-1.15-0.42-2.1-0.9-2.1c-0.48,0-0.89,0.95-0.89,2.1
		C44.82,13.33,45.22,14.28,45.7,14.28z"/>
	<path class="st0" d="M49.17,13.25v-1.63c0-0.98-0.31-1.37-0.58-1.53c0.54-0.7,1.94-0.74,2.36-0.54v1.66
		c0.44-0.96,1.23-1.82,1.93-1.82c1.82,0,1,3.22-0.51,1.94c-0.89-0.75-1.42,0.5-1.42,1.82c0,1,0.31,1.2,0.6,1.25l0.03,0.42h-3.03
		l0.03-0.42C48.86,14.36,49.17,14.13,49.17,13.25z"/>
	<path class="st0" d="M57.04,13.45l-0.59-0.89v0.6c0,1,0.31,1.2,0.6,1.25l0.03,0.42h-3.04l0.03-0.42c0.29-0.05,0.6-0.25,0.6-1.25
		V9.5c0-0.98-0.37-1.09-0.65-1.26c0.54-0.7,2.02-0.74,2.43-0.54v4l1.04-0.99c0.36-0.39,0.3-0.78-0.17-0.87l-0.01-0.3h2.23
		l-0.09,0.66c-0.41,0.04-0.84,0.28-1.34,0.72l-0.55,0.54l1.24,1.82c0.62,0.91,0.98,1.07,1.2,1.12h0.11l0.04,0.42h-0.71
		C58.39,14.82,57.77,14.55,57.04,13.45z"/>
</g>
</svg>
